<svg xmlns="http://www.w3.org/2000/svg" width="30.014" height="30" viewBox="0 0 30.014 30">
  <g id="bank-building" transform="translate(0 -0.012)">
    <g id="Layer_1_78_" transform="translate(0 0.012)">
      <g id="Group_45" data-name="Group 45">
        <path id="Path_196" data-name="Path 196" d="M28.638,42.718H1.364a1.364,1.364,0,1,0,0,2.728H28.637a1.364,1.364,0,0,0,0-2.728Z" transform="translate(0 -15.446)" fill="#3232ff"/>
        <path id="Path_197" data-name="Path 197" d="M4.033,29.447a1.364,1.364,0,0,0,0,2.729H27.9a1.364,1.364,0,0,0,0-2.729h-.34V17.174h.34a.681.681,0,1,0,0-1.363H4.033a.681.681,0,1,0,0,1.363h.341V29.447H4.033Zm20.8-12.274V29.447H20.738V17.174Zm-6.819,0V29.447H13.919V17.174Zm-10.909,0h4.091V29.447H7.1Z" transform="translate(-0.965 -5.722)" fill="#3232ff"/>
        <path id="Path_198" data-name="Path 198" d="M1.364,8.875H28.65a1.364,1.364,0,0,0,.443-2.655L15.561.131a1.367,1.367,0,0,0-1.119,0L.8,6.267a1.364,1.364,0,0,0,.559,2.607Z" transform="translate(0 -0.012)" fill="#3232ff"/>
      </g>
    </g>
  </g>
</svg>
