<svg xmlns="http://www.w3.org/2000/svg" width="25.331" height="15" viewBox="0 0 25.331 15">
  <g id="checkbook" transform="translate(0 -104)">
    <path id="Path_105" data-name="Path 105" d="M23.841,105.589H8.122A2.338,2.338,0,0,0,5.911,104H1.49A1.492,1.492,0,0,0,0,105.49v8.841a1.492,1.492,0,0,0,1.49,1.49H3.576v1.689A1.492,1.492,0,0,0,5.066,119H23.841a1.492,1.492,0,0,0,1.49-1.49v-10.43A1.492,1.492,0,0,0,23.841,105.589ZM6.508,117.263c-.311.311-.579.247-1.442.247v-1.689h.813A.848.848,0,0,1,6.508,117.263Zm.247-2.763c-.564-.225-.451-.169-5.265-.169V105.49H5.911a.845.845,0,0,1,.844.844Zm17.086,3.01H8.088c.208-.537.157-.113.157-10.43h15.6Z" fill="#323232"/>
    <path id="Path_106" data-name="Path 106" d="M208.745,225.49h9.934a.745.745,0,1,0,0-1.49h-9.934a.745.745,0,0,0,0,1.49Z" transform="translate(-197.669 -114.04)" fill="#323232"/>
    <path id="Path_107" data-name="Path 107" d="M208.745,289.49h9.934a.745.745,0,1,0,0-1.49h-9.934a.745.745,0,1,0,0,1.49Z" transform="translate(-197.669 -174.861)" fill="#323232"/>
  </g>
</svg>
