<svg xmlns="http://www.w3.org/2000/svg" width="47" height="47" viewBox="0 0 47 47">
  <g id="Group_38" data-name="Group 38" transform="translate(-276 -635)">
    <g id="Ellipse_29" data-name="Ellipse 29" transform="translate(277 636)" fill="none" stroke="#3232ff" stroke-width="1">
      <circle cx="22.5" cy="22.5" r="22.5" stroke="none"/>
      <circle cx="22.5" cy="22.5" r="23" fill="none"/>
    </g>
    <g id="edit" transform="translate(288 647)">
      <path id="Path_110" data-name="Path 110" d="M18.656.93,6.464,13.122A4.966,4.966,0,0,0,5,16.657V18a1,1,0,0,0,1,1H7.343a4.966,4.966,0,0,0,3.535-1.464L23.07,5.344a3.125,3.125,0,0,0,0-4.414,3.194,3.194,0,0,0-4.414,0Zm3,3L9.464,16.122A3.02,3.02,0,0,1,7.343,17H7v-.343a3.02,3.02,0,0,1,.878-2.121L20.07,2.344a1.148,1.148,0,0,1,1.586,0,1.123,1.123,0,0,1,0,1.586Z" transform="translate(-1)" fill="#3232ff"/>
      <path id="Path_111" data-name="Path 111" d="M22.042,8.6a.958.958,0,0,0-.958.958v4.812H17.25a2.875,2.875,0,0,0-2.875,2.875v3.833H4.792a2.875,2.875,0,0,1-2.875-2.875V4.792A2.875,2.875,0,0,1,4.792,1.917h8.665a.958.958,0,1,0,0-1.917H4.792A4.8,4.8,0,0,0,0,4.792V18.208A4.8,4.8,0,0,0,4.792,23h10.87a4.761,4.761,0,0,0,3.389-1.4L21.6,19.05A4.761,4.761,0,0,0,23,15.662v-6.1A.958.958,0,0,0,22.042,8.6ZM17.7,20.242a2.851,2.851,0,0,1-1.4.767V17.25a.958.958,0,0,1,.958-.958h3.761a2.89,2.89,0,0,1-.767,1.4Z" fill="#3232ff"/>
    </g>
  </g>
</svg>
