<?xml version="1.0" encoding="UTF-8"?>
<svg xmlns="http://www.w3.org/2000/svg" xmlns:xlink="http://www.w3.org/1999/xlink" width="15px" height="10px" viewBox="0 0 15 10" version="1.1">
<g id="surface1">
<path style=" stroke:none;fill-rule:nonzero;fill:rgb(0%,0%,0%);fill-opacity:1;" d="M 11.6875 1.296875 C 12.972656 2.140625 14.078125 3.367188 14.917969 4.855469 L 15 5 L 14.917969 5.144531 C 14.078125 6.632812 12.96875 7.859375 11.6875 8.703125 C 10.433594 9.527344 9.007812 9.992188 7.5 9.992188 C 5.992188 9.992188 4.566406 9.527344 3.316406 8.703125 C 2.027344 7.859375 0.921875 6.632812 0.0820312 5.144531 L 0 5 L 0.0820312 4.855469 C 0.921875 3.367188 2.027344 2.140625 3.3125 1.296875 C 4.566406 0.472656 5.992188 0.0078125 7.5 0.0078125 C 9.007812 0.0078125 10.429688 0.472656 11.6875 1.296875 Z M 7.421875 2.648438 L 7.917969 2.695312 C 7.742188 2.957031 7.636719 3.269531 7.636719 3.609375 C 7.636719 4.5 8.351562 5.222656 9.234375 5.222656 C 9.519531 5.222656 9.785156 5.148438 10.015625 5.019531 C 10.019531 5.074219 10.023438 5.132812 10.023438 5.1875 C 10.023438 6.589844 8.859375 7.726562 7.421875 7.726562 C 5.984375 7.726562 4.820312 6.589844 4.820312 5.1875 C 4.820312 3.785156 5.984375 2.648438 7.421875 2.648438 Z M 13.304688 5 C 12.632812 3.847656 11.765625 2.902344 10.769531 2.246094 C 9.785156 1.601562 8.675781 1.234375 7.5 1.234375 C 6.328125 1.234375 5.214844 1.601562 4.234375 2.246094 C 3.234375 2.902344 2.367188 3.847656 1.695312 5 C 2.367188 6.152344 3.234375 7.097656 4.234375 7.753906 C 5.214844 8.398438 6.328125 8.761719 7.5 8.761719 C 8.675781 8.761719 9.785156 8.398438 10.769531 7.753906 C 11.765625 7.097656 12.632812 6.152344 13.304688 5 Z M 13.304688 5 "/>
</g>
</svg>
