<?xml version="1.0" encoding="UTF-8"?>
<svg width="752pt" height="752pt" version="1.1" viewBox="0 0 752 752" xmlns="http://www.w3.org/2000/svg">
 <g fill="#393b3c">
  <path d="m376 0c-49.375 0-98.27 9.7266-143.89 28.621-45.621 18.895-87.07 46.59-121.98 81.508-34.918 34.914-62.613 76.363-81.508 121.98-18.895 45.617-28.621 94.512-28.621 143.89 0 99.723 39.617 195.36 110.13 265.87 70.516 70.516 166.15 110.13 265.87 110.13 99.723 0 195.36-39.617 265.87-110.13 70.512-70.512 110.13-166.15 110.13-265.87 0-99.719-39.613-195.36-110.12-265.87-70.516-70.516-166.15-110.13-265.88-110.13zm0 42.465c43.316 0 86.207 8.625 126.23 25.387 40.02 16.762 76.379 41.332 107.01 72.305s54.926 67.738 71.5 108.21c16.578 40.465 25.105 83.84 25.105 127.64 0 88.461-34.75 173.3-96.605 235.84-61.859 62.551-145.75 97.691-233.23 97.691-43.312 0-86.207-8.625-126.22-25.387-40.02-16.762-76.383-41.332-107.01-72.301-30.629-30.973-54.926-67.742-71.504-108.21-16.574-40.469-25.105-83.84-25.105-127.64s8.5312-87.172 25.105-127.64c16.578-40.469 40.871-77.238 71.5-108.21 30.629-30.969 66.992-55.539 107.01-72.301 40.02-16.762 82.914-25.387 126.23-25.387z"/>
  <path d="m247.87 534.4v-148.03l-79.055-70.984 126.32-29.809c-3.6914 25.328 4.2148 50.973 21.527 69.824 1.0508 1.1445 2.1328 2.2539 3.2461 3.3359l-57.246 28.883v92.938l21.879-61.258 212.41-149.89-40.297 20.332c-1.3359-13.945-6.0938-27.344-13.848-39.008l140.39-33.129-201.88 288.59-53.113-47.688z"/>
  <path d="m338.46 260.31c7.8242-8.5195 18.336-14.094 29.777-15.789v10.73c-6.9961 3.0117-12.336 8.918-14.625 16.184-2.2891 7.2617-1.3008 15.164 2.707 21.641 4.0078 6.4766 10.637 10.887 18.16 12.082 3.4453 0.54688 6.4453 2.6406 8.1484 5.6836 1.7031 3.043 1.9141 6.6992 0.57422 9.918-1.3359 3.2227-4.0781 5.6523-7.4336 6.5898-3.3594 0.94141-6.9609 0.29297-9.7773-1.7617-3.3047-2.3906-7.9141-1.6602-10.316 1.6328-2.4023 3.293-1.6914 7.9062 1.5938 10.324 3.2305 2.3555 6.957 3.9375 10.895 4.6289l30.344-21.414c1.168-6.8906-0.47266-13.961-4.5508-19.641-4.0742-5.6758-10.254-9.4844-17.156-10.582-3.4453-0.54687-6.4492-2.6406-8.1484-5.6836-1.7031-3.043-1.9141-6.6992-0.57812-9.9219 1.3398-3.2188 4.0781-5.6484 7.4375-6.5898 3.3555-0.94141 6.9609-0.28906 9.7773 1.7656 3.3008 2.3867 7.9141 1.6562 10.316-1.6367 2.3984-3.2891 1.6875-7.9062-1.5938-10.32-3.2539-2.3711-7.0078-3.9609-10.973-4.6484v-8.9844c11.441 1.6953 21.953 7.2695 29.777 15.789 10 10.887 15.238 25.312 14.562 40.078l14.441-10.191v0.003907c-1.6289-14.891-7.9727-28.867-18.102-39.898-12.363-13.461-29.801-21.125-48.078-21.125-18.277 0-35.719 7.6641-48.078 21.125-11.91 12.969-18.52 29.938-18.52 47.547s6.6094 34.578 18.52 47.547c4.9297 5.3711 10.727 9.8789 17.148 13.332l14.047-9.9141h0.003906c-7.7617-2.7539-14.73-7.3633-20.301-13.426-9.4023-10.242-14.621-23.637-14.621-37.539s5.2188-27.297 14.621-37.539z"/>
 </g>
</svg>
