<svg xmlns="http://www.w3.org/2000/svg" width="23.331" height="24.87" viewBox="0 0 23.331 24.87">
  <g id="Group_43" data-name="Group 43" transform="translate(-20 -436.065)">
    <g id="loan_1_" data-name="loan (1)" transform="translate(4.158 436.065)">
      <g id="Group_42" data-name="Group 42" transform="translate(21.537)">
        <g id="Group_41" data-name="Group 41">
          <path id="Path_189" data-name="Path 189" d="M140.642,0a7.624,7.624,0,1,0,7.563,7.623A7.6,7.6,0,0,0,140.642,0Zm0,13.79a6.167,6.167,0,1,1,6.106-6.166A6.143,6.143,0,0,1,140.642,13.79Z" transform="translate(-133.079)" fill="#323232"/>
        </g>
      </g>
      <path id="Path_191" data-name="Path 191" d="M38.96,318.357a3.5,3.5,0,0,0-4.946,0l-2.186,2.186H30.79a3.57,3.57,0,0,0,.7-2.132.729.729,0,0,0-.729-.729H28.346a5.719,5.719,0,0,1-2.354-.738,7.525,7.525,0,0,0-2.734-.878,7.7,7.7,0,0,0-2.656.29,2.355,2.355,0,0,0-1.684,2.051H16.571a.729.729,0,0,0-.729.729v5.7a.729.729,0,0,0,.729.729H31.443a3.206,3.206,0,0,0,2.282-.945l5.235-5.235a.729.729,0,0,0,0-1.03ZM17.3,319.864h1.609v4.247H17.3Zm15.395,3.728a1.758,1.758,0,0,1-1.251.518H20.366V318.6a.888.888,0,0,1,.64-.846,6.252,6.252,0,0,1,2.155-.236,6.342,6.342,0,0,1,2.209.742,6.891,6.891,0,0,0,2.976.878h1.562a2.136,2.136,0,0,1-1.9,1.4c-.025,0-3.762,0-3.762,0a.729.729,0,0,0,0,1.457l7.886.007a.728.728,0,0,0,.515-.213l2.4-2.4a2.045,2.045,0,0,1,2.276-.421Z" transform="translate(0 -300.698)" fill="#323232"/>
    </g>
    <path id="rupee_1_" data-name="rupee (1)" d="M11,4.909V4H6v.909H7.591a1.361,1.361,0,0,1,1.28.909H6v.909H8.87a1.361,1.361,0,0,1-1.28.909H6v1.1l2.539,2.539H9.825L7.1,8.545h.494A2.276,2.276,0,0,0,9.817,6.727H11V5.818H9.817a2.243,2.243,0,0,0-.42-.909Z" transform="translate(25 436.741)" fill="#323232"/>
  </g>
</svg>
