<svg xmlns="http://www.w3.org/2000/svg" width="24" height="17" viewBox="0 0 24 17">
  <g id="menu-burger_1_" data-name="menu-burger (1)" transform="translate(0 -74.667)">
    <path id="Path_3" data-name="Path 3" d="M22.5,224H1.5a1.5,1.5,0,1,0,0,3h21a1.5,1.5,0,1,0,0-3Z" transform="translate(0 -142.333)" fill="#fff"/>
    <path id="Path_4" data-name="Path 4" d="M1.5,77.667h21a1.5,1.5,0,1,0,0-3H1.5a1.5,1.5,0,1,0,0,3Z" transform="translate(0 0)" fill="#fff"/>
    <path id="Path_5" data-name="Path 5" d="M22.5,373.333H1.5a1.5,1.5,0,1,0,0,3h21a1.5,1.5,0,1,0,0-3Z" transform="translate(0 -284.666)" fill="#fff"/>
  </g>
</svg>
