<svg id="payment" xmlns="http://www.w3.org/2000/svg" width="22.7" height="22.7" viewBox="0 0 22.7 22.7">
  <path id="Path_108" data-name="Path 108" d="M20.7,8.424H20.04V5.985a2,2,0,0,0-2-2h-1.6V.665A.665.665,0,0,0,15.784,0H5.143a.665.665,0,0,0-.665.665V3.99H2a2,2,0,0,0-2,2V18.4a2,2,0,0,0,2,2H4.427a5.095,5.095,0,0,0,8.527,0h5.092a2,2,0,0,0,2-2V15.961H20.7a2,2,0,0,0,2-2V10.419A2,2,0,0,0,20.7,8.424Zm-4.256-3.1h1.6a.666.666,0,0,1,.665.665v.779a1.986,1.986,0,0,0-.665-.114h-1.6Zm-1.33-3.99V3.011A2.447,2.447,0,0,1,13.438,1.33Zm-9.311,0H7.489A2.447,2.447,0,0,1,5.808,3.011Zm0,3.044A3.777,3.777,0,0,0,8.852,1.33h3.223a3.777,3.777,0,0,0,3.044,3.044V6.65H5.808ZM2,5.32H4.478V6.65H2A.665.665,0,0,1,2,5.32ZM8.69,21.37A3.769,3.769,0,1,1,12.458,17.6,3.773,3.773,0,0,1,8.69,21.37ZM18.71,18.4a.666.666,0,0,1-.665.665H13.574a5.1,5.1,0,1,0-9.769,0H2A.666.666,0,0,1,1.33,18.4V7.867A1.986,1.986,0,0,0,2,7.98h16.05a.666.666,0,0,1,.665.665v2.438h-.222a2.438,2.438,0,0,0,0,4.877h.222Zm2.66-4.434a.666.666,0,0,1-.665.665H18.488a1.108,1.108,0,0,1,0-2.217H20.7a1.986,1.986,0,0,0,.665-.114ZM20.7,11.084H20.04V9.754H20.7a.665.665,0,1,1,0,1.33Z" fill="#323232"/>
  <path id="Path_109" data-name="Path 109" d="M153.137,350.375a.665.665,0,0,0-.94,0l-.941.94-.94-.94a.665.665,0,0,0-.94.94l.94.94-.94.94a.665.665,0,0,0,.94.94l.94-.94.941.94a.665.665,0,1,0,.94-.94l-.94-.94.94-.94A.665.665,0,0,0,153.137,350.375Z" transform="translate(-142.566 -334.655)" fill="#323232"/>
</svg>
