<svg xmlns="http://www.w3.org/2000/svg" width="24.739" height="27" viewBox="0 0 24.739 27">
  <g id="power" transform="translate(-21.447)">
    <path id="Path_1" data-name="Path 1" d="M225.748,0h0a1.687,1.687,0,0,1,1.687,1.687V7.308a1.687,1.687,0,0,1-1.687,1.687h0a1.687,1.687,0,0,1-1.687-1.687V1.687A1.687,1.687,0,0,1,225.748,0Z" transform="translate(-191.936 0)" fill="#fff"/>
    <path id="Path_2" data-name="Path 2" d="M37.747,74.986h0a1.634,1.634,0,0,0,.754,1.4,8.995,8.995,0,1,1-9.4.012,1.654,1.654,0,0,0,.775-1.412h0a1.687,1.687,0,0,0-2.586-1.431,12.368,12.368,0,1,0,13.051,0,1.692,1.692,0,0,0-2.595,1.43Z" transform="translate(0 -69.432)" fill="#fff"/>
  </g>
</svg>
