<svg xmlns="http://www.w3.org/2000/svg" width="20.117" height="20.333" viewBox="0 0 20.117 20.333">
  <g id="sign-out-alt_1_" data-name="sign-out-alt (1)" opacity="0.8">
    <path id="Path_17" data-name="Path 17" d="M9.723,12.708a.847.847,0,0,0-.847.847V16.1a2.542,2.542,0,0,1-2.542,2.542h-2.1A2.542,2.542,0,0,1,1.694,16.1V4.236A2.542,2.542,0,0,1,4.236,1.694h2.1A2.542,2.542,0,0,1,8.875,4.236V6.778a.847.847,0,0,0,1.694,0V4.236A4.241,4.241,0,0,0,6.334,0h-2.1A4.241,4.241,0,0,0,0,4.236V16.1a4.241,4.241,0,0,0,4.236,4.236h2.1A4.241,4.241,0,0,0,10.57,16.1V13.556A.847.847,0,0,0,9.723,12.708Z"/>
    <path id="Path_18" data-name="Path 18" d="M20.137,9.134,16.252,5.248a.847.847,0,1,0-1.2,1.2l3.611,3.612-12.818.025a.847.847,0,1,0,0,1.694h0l12.868-.026-3.663,3.663a.847.847,0,1,0,1.2,1.2l3.885-3.885a2.542,2.542,0,0,0,0-3.594Z" transform="translate(-0.764 -0.764)"/>
  </g>
</svg>
