<svg xmlns="http://www.w3.org/2000/svg" width="26" height="20" viewBox="0 0 26 20">
  <g id="Group_44" data-name="Group 44" transform="translate(-21 -481)">
    <g id="checkbook" transform="translate(21 382)">
      <path id="Path_105" data-name="Path 105" d="M23.841,105.589H8.122A2.338,2.338,0,0,0,5.911,104H1.49A1.492,1.492,0,0,0,0,105.49v8.841a1.492,1.492,0,0,0,1.49,1.49H3.576v1.689A1.492,1.492,0,0,0,5.066,119H23.841a1.492,1.492,0,0,0,1.49-1.49v-10.43A1.492,1.492,0,0,0,23.841,105.589ZM6.508,117.263c-.311.311-.579.247-1.442.247v-1.689h.813A.848.848,0,0,1,6.508,117.263Zm.247-2.763c-.564-.225-.451-.169-5.265-.169V105.49H5.911a.845.845,0,0,1,.844.844Zm17.086,3.01H8.088c.208-.537.157-.113.157-10.43h15.6Z" fill="#323232"/>
      <path id="Path_107" data-name="Path 107" d="M208.745,289.49h9.934a.745.745,0,1,0,0-1.49h-9.934a.745.745,0,1,0,0,1.49Z" transform="translate(-197.669 -174.861)" fill="#323232"/>
    </g>
    <circle id="Ellipse_60" data-name="Ellipse 60" cx="6.5" cy="6.5" r="6.5" transform="translate(34 481)" fill="#fff"/>
    <g id="clock_1_" data-name="clock (1)" transform="translate(34.5 481.5)">
      <path id="Path_194" data-name="Path 194" d="M6,1a5,5,0,1,0,5,5A5,5,0,0,0,6,1Zm0,9.091A4.091,4.091,0,1,1,10.091,6,4.091,4.091,0,0,1,6,10.091Z" fill="#323232"/>
      <path id="Path_195" data-name="Path 195" d="M11.909,7.994V5.455a.455.455,0,1,0-.909,0V8.182a.454.454,0,0,0,.133.321L12.5,9.867a.455.455,0,1,0,.643-.643Z" transform="translate(-5.455 -2.182)" fill="#323232"/>
    </g>
  </g>
</svg>
