<svg xmlns="http://www.w3.org/2000/svg" width="22" height="22" viewBox="0 0 22 22">
  <path id="users" d="M6.875,11.917A4.125,4.125,0,1,1,11,7.792a4.125,4.125,0,0,1-4.125,4.125Zm0-6.417A2.292,2.292,0,1,0,9.167,7.792,2.292,2.292,0,0,0,6.875,5.5ZM13.75,21.083v-.458a6.875,6.875,0,0,0-13.75,0v.458a.917.917,0,0,0,1.833,0v-.458a5.042,5.042,0,0,1,10.083,0v.458a.917.917,0,0,0,1.833,0ZM22,16.5a6.417,6.417,0,0,0-10.695-4.782.917.917,0,1,0,1.223,1.366A4.583,4.583,0,0,1,20.167,16.5.917.917,0,1,0,22,16.5ZM16.042,8.25a4.125,4.125,0,1,1,4.125-4.125A4.125,4.125,0,0,1,16.042,8.25Zm0-6.417a2.292,2.292,0,1,0,2.292,2.292A2.292,2.292,0,0,0,16.042,1.833Z" fill="#323232"/>
</svg>
